<?xml version="1.0" standalone="no"?>
<!DOCTYPE svg PUBLIC "-//W3C//DTD SVG 20010904//EN"
 "http://www.w3.org/TR/2001/REC-SVG-20010904/DTD/svg10.dtd">
<svg version="1.0" xmlns="http://www.w3.org/2000/svg"
 width="649.000000pt" height="899.000000pt" viewBox="0 0 649.000000 899.000000"
 preserveAspectRatio="xMidYMid meet">

<g transform="translate(0.000000,899.000000) scale(0.100000,-0.100000)"
fill="#000000" stroke="none">
<path d="M1716 8963 c-7 -16 -95 -228 -194 -473 -100 -245 -233 -573 -297
-730 -64 -157 -158 -388 -209 -515 -52 -126 -235 -579 -409 -1005 -174 -426
-379 -930 -456 -1120 l-140 -345 871 -3 c479 -1 873 -1 875 1 2 2 11 478 21
1058 l17 1054 27 45 c15 25 141 218 281 430 l253 385 172 3 172 2 0 -162 c0
-90 -9 -737 -20 -1438 -11 -701 -20 -1328 -20 -1392 l0 -118 595 0 c327 0 595
1 595 3 1 1 11 699 24 1550 13 851 26 1550 28 1552 8 8 371 6 378 -2 5 -4 53
-82 108 -173 55 -91 179 -297 276 -458 l177 -293 -16 -867 c-8 -477 -15 -938
-15 -1024 l0 -158 841 0 c797 0 841 1 834 18 -8 21 -191 561 -405 1197 -87
259 -208 616 -268 795 -61 179 -149 440 -196 580 -48 140 -191 564 -319 942
l-232 688 -752 0 -753 0 0 -202 c0 -112 -5 -536 -11 -943 -10 -705 -11 -742
-30 -785 -37 -84 -108 -136 -197 -147 -95 -11 -194 41 -242 127 -25 45 -25 46
-25 310 0 146 4 574 8 953 l9 687 -671 0 -670 0 -15 -27z"/>
<path d="M3244 4392 l-591 -2 -7 -533 c-4 -292 -13 -944 -21 -1447 -8 -503
-15 -979 -15 -1057 l0 -143 -189 0 -189 0 -257 426 -257 425 1 152 c1 84 8
561 17 1061 8 499 13 910 11 912 -2 2 -395 3 -874 2 l-870 -3 23 -70 c13 -38
66 -198 119 -355 53 -157 164 -483 245 -725 82 -242 243 -721 360 -1065 116
-344 308 -913 427 -1265 118 -352 222 -655 229 -673 l14 -33 760 3 c418 3 761
6 763 9 3 2 10 456 16 1009 7 553 15 1016 18 1030 18 78 90 157 162 178 56 17
130 14 176 -7 55 -25 121 -99 136 -153 9 -33 9 -248 0 -963 -6 -506 -11 -959
-11 -1007 l0 -88 658 0 658 0 153 377 c241 593 348 856 416 1023 92 229 356
876 415 1020 28 69 107 262 175 430 68 168 190 467 270 665 192 471 265 654
265 660 0 3 -373 5 -828 5 l-829 0 -6 -502 c-4 -277 -12 -771 -18 -1098 l-12
-595 -45 -70 c-25 -38 -118 -180 -206 -315 -89 -135 -184 -280 -211 -322 l-50
-78 -224 0 -223 0 6 243 c3 133 11 580 17 992 5 413 14 1018 19 1345 5 327 6
597 2 600 -4 3 -273 4 -598 2z"/>
</g>
</svg>
