<?xml version="1.0" standalone="no"?>
<!DOCTYPE svg PUBLIC "-//W3C//DTD SVG 20010904//EN"
 "http://www.w3.org/TR/2001/REC-SVG-20010904/DTD/svg10.dtd">
<svg version="1.0" xmlns="http://www.w3.org/2000/svg"
 width="1020.000000pt" height="758.000000pt" viewBox="0 0 1020.000000 758.000000"
 preserveAspectRatio="xMidYMid meet">

<g transform="translate(0.000000,758.000000) scale(0.100000,-0.100000)"
fill="#000000" stroke="none">
<path d="M3671 7504 c-232 -140 -399 -272 -635 -504 -256 -250 -449 -478 -653
-768 -257 -367 -484 -808 -579 -1127 -35 -117 -38 -281 -7 -360 10 -27 89
-167 175 -310 972 -1625 1649 -2898 2204 -4143 59 -134 118 -254 131 -268 18
-19 32 -24 73 -24 36 0 52 4 57 15 9 25 -44 319 -92 507 -74 291 -176 580
-307 861 -72 157 -436 861 -1100 2127 -313 597 -576 1109 -584 1138 -20 66
-15 90 48 227 158 345 426 792 622 1040 85 107 103 128 268 309 173 188 298
365 418 589 l52 97 471 2 472 3 168 333 168 332 -623 0 -623 -1 -124 -75z"/>
<path d="M5160 7574 c0 -3 74 -153 166 -334 l165 -330 472 -2 472 -3 50 -92
c129 -237 261 -421 430 -603 288 -310 514 -636 753 -1085 174 -329 197 -394
172 -485 -5 -19 -190 -379 -411 -800 -849 -1620 -1235 -2367 -1304 -2520 -179
-398 -305 -825 -358 -1212 -15 -109 -16 -108 53 -108 21 0 47 8 59 18 11 9 74
136 140 282 555 1238 1147 2351 2139 4024 124 209 233 403 243 433 27 76 25
205 -5 324 -47 187 -191 512 -341 770 -237 409 -514 768 -850 1105 -250 251
-449 410 -690 554 l-119 70 -618 0 c-340 0 -618 -3 -618 -6z"/>
<path d="M4745 4038 c-99 -26 -296 -125 -390 -196 -147 -110 -287 -276 -368
-437 -38 -77 -84 -215 -104 -312 -24 -121 -23 -357 1 -473 95 -446 401 -791
830 -934 43 -14 85 -26 92 -26 11 0 14 34 14 183 l0 182 -61 24 c-88 34 -226
129 -297 205 -154 165 -227 334 -239 556 -14 252 65 465 240 647 90 93 185
161 285 204 l67 28 3 90 c1 49 1 132 0 184 l-3 94 -70 -19z"/>
<path d="M5360 3878 l0 -183 60 -23 c255 -98 454 -317 530 -582 31 -107 38
-281 16 -390 -61 -301 -250 -531 -538 -655 l-68 -29 0 -179 0 -179 38 7 c126
23 312 111 445 211 311 233 487 586 487 976 0 347 -115 626 -359 869 -168 169
-383 293 -578 334 l-33 7 0 -184z"/>
<path d="M1096 2606 l-1099 -661 711 -3 c391 -1 1032 -1 1425 0 l715 3 -323
658 c-177 361 -324 658 -326 660 -2 2 -499 -294 -1103 -657z"/>
<path d="M7676 2609 c-174 -358 -316 -655 -316 -660 0 -5 548 -9 1422 -9 782
0 1419 2 1417 4 -11 11 -2192 1316 -2198 1316 -5 0 -151 -293 -325 -651z"/>
</g>
</svg>
